<svg width="440" height="440" viewBox="0 0 440 440" fill="none" xmlns="http://www.w3.org/2000/svg">
<path d="M44.4629 228.8C49.0945 228.8 49.0945 221.621 44.4629 221.621C39.8314 221.621 39.8314 228.8 44.4629 228.8Z" fill="#00B1E9"/>
<path d="M47.4737 261.221C52.1053 261.221 52.1053 254.042 47.4737 254.042C42.8421 254.042 42.8421 261.221 47.4737 261.221Z" fill="#00B1E9"/>
<path d="M69.3579 318.537C73.9895 318.537 73.9895 311.358 69.3579 311.358C64.6105 311.242 64.6105 318.537 69.3579 318.537Z" fill="#00B1E9"/>
<path d="M99.9263 356.284C104.558 356.284 104.558 349.105 99.9263 349.105C95.2947 349.105 95.2947 356.284 99.9263 356.284Z" fill="#00B1E9"/>
<path d="M154.347 390.789C158.979 390.789 158.979 383.611 154.347 383.611C149.716 383.611 149.716 390.789 154.347 390.789Z" fill="#00B1E9"/>
<path d="M202.863 402.368C207.494 402.368 207.494 395.189 202.863 395.189C198.231 395.074 198.231 402.368 202.863 402.368Z" fill="#00B1E9"/>
<path d="M279.863 390.789C284.494 390.789 284.494 383.611 279.863 383.611C275.231 383.611 275.231 390.789 279.863 390.789Z" fill="#00B1E9"/>
<path d="M328.031 364.389C332.663 364.389 332.663 357.211 328.031 357.211C323.4 357.211 323.4 364.389 328.031 364.389Z" fill="#00B1E9"/>
<path d="M363.347 325.832C367.979 325.832 367.979 318.653 363.347 318.653C358.716 318.653 358.716 325.832 363.347 325.832Z" fill="#00B1E9"/>
<path d="M382.916 286.926C387.547 286.926 387.547 279.747 382.916 279.747C378.284 279.747 378.284 286.926 382.916 286.926Z" fill="#00B1E9"/>
<path d="M391.715 249.295C396.347 249.295 396.347 242.116 391.715 242.116C387.084 242.116 387.084 249.295 391.715 249.295Z" fill="#00B1E9"/>
<path d="M383.842 173.337C388.473 173.337 388.473 166.158 383.842 166.158C379.21 166.042 379.21 173.337 383.842 173.337Z" fill="#00B1E9"/>
<path d="M392.179 213.284C396.81 213.284 396.81 206.105 392.179 206.105C387.547 206.105 387.547 213.284 392.179 213.284Z" fill="#00B1E9"/>
<path d="M367.4 138.021C372.031 138.021 372.031 130.842 367.4 130.842C362.653 130.842 362.653 138.021 367.4 138.021Z" fill="#00B1E9"/>
<path d="M327.452 92.7474C332.084 92.7474 332.084 85.5684 327.452 85.5684C322.821 85.5684 322.821 92.7474 327.452 92.7474Z" fill="#00B1E9"/>
<path d="M278.474 65.1895C283.105 65.1895 283.105 58.0105 278.474 58.0105C273.842 58.0105 273.842 65.1895 278.474 65.1895Z" fill="#00B1E9"/>
<path d="M247.094 56.9684C251.726 56.9684 251.726 49.7895 247.094 49.7895C242.463 49.7895 242.463 56.9684 247.094 56.9684Z" fill="#00B1E9"/>
<path d="M201.474 55.4632C206.105 55.4632 206.105 48.2842 201.474 48.2842C196.842 48.2842 196.842 55.4632 201.474 55.4632Z" fill="#00B1E9"/>
<path d="M153.652 67.1579C158.284 67.1579 158.284 59.9789 153.652 59.9789C149.021 59.9789 149.021 67.1579 153.652 67.1579Z" fill="#00B1E9"/>
<path d="M105.715 96.2211C110.347 96.2211 110.347 89.0421 105.715 89.0421C101.084 89.0421 101.084 96.2211 105.715 96.2211Z" fill="#00B1E9"/>
<path d="M67.2735 142.653C71.9051 142.653 71.9051 135.474 67.2735 135.474C62.6419 135.358 62.6419 142.653 67.2735 142.653Z" fill="#00B1E9"/>
<path d="M51.526 179.821C56.1576 179.821 56.1576 172.642 51.526 172.642C46.8944 172.642 46.7787 179.821 51.526 179.821Z" fill="#00B1E9"/>
<path d="M105.716 92.6316L67.2739 138.947L51.5265 176.232L44.4634 225.211L47.4739 257.632L69.3581 314.832L99.9265 352.695L154.348 387.2L202.863 398.663L280.211 388.242L328.032 360.8L363.348 322.242L382.916 283.337L391.716 245.705L392.179 209.695L383.842 169.632L367.4 134.432L327.453 89.1579L278.474 61.6L247.095 53.379L201.474 51.8737L153.653 63.5684L105.716 92.6316Z" stroke="#00B1E9" stroke-width="1.7008" stroke-miterlimit="10" stroke-linecap="round" stroke-linejoin="round"/>
<path d="M119.842 154.811C124.474 154.811 124.474 147.632 119.842 147.632C115.211 147.632 115.211 154.811 119.842 154.811Z" fill="#00B1E9"/>
<path d="M93.674 173.568C93.5582 173.568 93.5582 173.568 93.4424 173.568C88.8109 173.568 88.8109 180.747 93.4424 180.747C93.5582 180.747 93.5582 180.747 93.674 180.747C98.3056 180.747 98.3056 173.568 93.674 173.568C93.5582 173.568 93.5582 173.568 93.4424 173.568C88.8109 173.568 88.8109 180.747 93.4424 180.747C93.5582 180.747 93.5582 180.747 93.674 180.747C98.3056 180.747 98.3056 173.568 93.674 173.568Z" fill="#00B1E9"/>
<path d="M204.253 107.684C204.369 107.684 204.485 107.684 204.6 107.684C205.064 107.684 205.527 107.568 205.99 107.337C206.453 107.221 206.8 106.989 207.148 106.642C207.495 106.295 207.727 105.947 207.843 105.484C208.074 105.021 208.19 104.558 208.19 104.095C208.19 103.747 208.074 103.4 208.074 103.168C207.958 102.589 207.611 102.011 207.148 101.547C206.916 101.316 206.685 101.2 206.453 100.968C205.874 100.621 205.295 100.505 204.6 100.505C204.485 100.505 204.369 100.505 204.253 100.505C203.79 100.505 203.327 100.621 202.864 100.853C202.4 100.968 202.053 101.2 201.706 101.547C201.358 101.895 201.127 102.242 201.011 102.705C200.779 103.168 200.664 103.632 200.664 104.095C200.664 104.442 200.779 104.789 200.779 105.021C200.895 105.6 201.243 106.179 201.706 106.642C201.937 106.874 202.169 106.989 202.4 107.221C202.979 107.568 203.558 107.684 204.253 107.684Z" fill="#00B1E9"/>
<path d="M219.306 176C223.937 176 223.937 168.821 219.306 168.821C214.674 168.705 214.674 176 219.306 176Z" fill="#00B1E9"/>
<path d="M251.263 98.4211C255.895 98.4211 255.895 91.2421 251.263 91.2421C246.632 91.2421 246.632 98.4211 251.263 98.4211Z" fill="#00B1E9"/>
<path d="M307.074 154.811C311.705 154.811 311.705 147.632 307.074 147.632C302.442 147.632 302.442 154.811 307.074 154.811Z" fill="#00B1E9"/>
<path d="M348.179 173.8C352.811 173.8 352.811 166.621 348.179 166.621C343.548 166.621 343.548 173.8 348.179 173.8Z" fill="#00B1E9"/>
<path d="M246.4 205.989C246.284 205.989 246.169 205.989 246.053 205.989C245.59 205.989 245.127 206.105 244.663 206.337C244.2 206.453 243.853 206.684 243.505 207.032C243.158 207.379 242.927 207.726 242.811 208.189C242.579 208.653 242.463 209.116 242.463 209.579C242.463 209.926 242.579 210.274 242.579 210.505C242.695 211.084 243.042 211.663 243.505 212.126C243.737 212.358 243.969 212.474 244.2 212.705C244.779 213.053 245.358 213.168 246.053 213.168C246.169 213.168 246.284 213.168 246.4 213.168C246.863 213.168 247.327 213.053 247.79 212.821C248.253 212.705 248.6 212.474 248.948 212.126C249.295 211.779 249.527 211.432 249.642 210.968C249.874 210.505 249.99 210.042 249.99 209.579C249.99 209.232 249.874 208.884 249.874 208.653C249.758 208.074 249.411 207.495 248.948 207.032C248.716 206.8 248.484 206.684 248.253 206.453C247.674 206.105 247.095 205.989 246.4 205.989Z" fill="#00B1E9"/>
<path d="M342.737 221.737C342.621 221.737 342.506 221.737 342.39 221.737C341.927 221.737 341.463 221.853 341 222.084C340.537 222.2 340.19 222.432 339.842 222.779C339.495 223.126 339.263 223.474 339.148 223.937C338.916 224.4 338.8 224.863 338.8 225.326C338.8 225.674 338.916 226.021 338.916 226.253C339.032 226.832 339.379 227.411 339.842 227.874C340.074 228.105 340.306 228.221 340.537 228.453C341.116 228.8 341.695 228.916 342.39 228.916C342.506 228.916 342.621 228.916 342.737 228.916C343.2 228.916 343.663 228.8 344.127 228.568C344.59 228.453 344.937 228.221 345.285 227.874C345.632 227.526 345.863 227.179 345.979 226.716C346.211 226.253 346.327 225.79 346.327 225.326C346.327 224.979 346.211 224.632 346.211 224.4C346.095 223.821 345.748 223.242 345.285 222.779C345.053 222.547 344.821 222.432 344.59 222.2C344.011 221.853 343.432 221.737 342.737 221.737Z" fill="#00B1E9"/>
<path d="M168.011 213.168C172.642 213.168 172.642 205.989 168.011 205.989C163.379 205.989 163.379 213.168 168.011 213.168Z" fill="#00B1E9"/>
<path d="M125.169 239.105C129.8 239.105 129.8 231.926 125.169 231.926C120.537 231.926 120.537 239.105 125.169 239.105Z" fill="#00B1E9"/>
<path d="M75.1476 233.895C79.7792 233.895 79.7792 226.716 75.1476 226.716C70.516 226.6 70.4002 233.895 75.1476 233.895Z" fill="#00B1E9"/>
<path d="M153.653 296.421C158.284 296.421 158.284 289.242 153.653 289.242C149.021 289.242 149.021 296.421 153.653 296.421Z" fill="#00B1E9"/>
<path d="M218.379 372.958C223.011 372.958 223.011 365.779 218.379 365.779C213.747 365.663 213.632 372.958 218.379 372.958Z" fill="#00B1E9"/>
<path d="M275.811 291.326C280.442 291.326 280.442 284.147 275.811 284.147C271.063 284.147 271.063 291.326 275.811 291.326Z" fill="#00B1E9"/>
<path d="M218.379 277.316C223.011 277.316 223.011 270.137 218.379 270.137C213.747 270.137 213.632 277.316 218.379 277.316Z" fill="#00B1E9"/>
<path d="M306.263 319.116C310.895 319.116 310.895 311.937 306.263 311.937C301.632 311.821 301.632 319.116 306.263 319.116Z" fill="#00B1E9"/>
<path d="M141.958 357.442C146.59 357.442 146.59 350.263 141.958 350.263C137.326 350.263 137.326 357.442 141.958 357.442Z" fill="#00B1E9"/>
<path d="M157.59 96.2211C162.221 96.2211 162.221 89.0421 157.59 89.0421C152.958 89.0421 152.842 96.2211 157.59 96.2211Z" fill="#00B1E9"/>
<path d="M104.558 116.716C109.19 116.716 109.19 109.537 104.558 109.537C99.9266 109.421 99.9266 116.716 104.558 116.716Z" fill="#00B1E9"/>
<path d="M292.368 79.0842C292.253 79.0842 292.137 79.0842 292.021 79.0842C291.558 79.0842 291.095 79.2 290.632 79.4316C290.168 79.5474 289.821 79.779 289.474 80.1263C289.126 80.4737 288.895 80.8211 288.779 81.2842C288.547 81.7474 288.432 82.2105 288.432 82.6737C288.432 83.0211 288.547 83.3684 288.547 83.6C288.663 84.179 289.011 84.7579 289.474 85.2211C289.705 85.4526 289.937 85.5684 290.168 85.8C290.747 86.1474 291.326 86.2632 292.021 86.2632C292.137 86.2632 292.253 86.2632 292.368 86.2632C292.832 86.2632 293.295 86.1474 293.758 85.9158C294.221 85.8 294.568 85.5684 294.916 85.2211C295.263 84.8737 295.495 84.5263 295.611 84.0632C295.842 83.6 295.958 83.1369 295.958 82.6737C295.958 82.3263 295.842 81.979 295.842 81.7474C295.726 81.1684 295.379 80.5895 294.916 80.1263C294.684 79.8947 294.453 79.779 294.221 79.5474C293.642 79.3158 293.063 79.0842 292.368 79.0842Z" fill="#00B1E9"/>
<path d="M238.758 126.674C238.642 126.674 238.527 126.674 238.411 126.674C238.179 126.674 237.832 126.674 237.6 126.789C237.369 126.905 237.137 127.021 237.021 127.253C236.79 127.484 236.674 127.6 236.558 127.832C236.442 128.063 236.327 128.295 236.442 128.642C236.442 128.874 236.442 128.989 236.558 129.221C236.674 129.568 236.79 129.8 237.021 130.147C237.137 130.263 237.253 130.379 237.369 130.495C237.716 130.726 238.064 130.726 238.411 130.726C238.527 130.726 238.642 130.726 238.758 130.726C238.99 130.726 239.337 130.726 239.569 130.611C239.8 130.495 240.032 130.379 240.148 130.147C240.379 129.916 240.495 129.8 240.611 129.568C240.727 129.337 240.842 129.105 240.727 128.758C240.727 128.526 240.727 128.411 240.611 128.179C240.495 127.832 240.379 127.6 240.148 127.253C240.032 127.137 239.916 127.021 239.8 126.905C239.453 126.789 239.106 126.674 238.758 126.674Z" fill="#00B1E9"/>
<path d="M274.19 152.495C276.737 152.495 276.737 148.558 274.19 148.558C271.758 148.558 271.642 152.495 274.19 152.495Z" fill="#00B1E9"/>
<path d="M306.726 105.6C309.274 105.6 309.274 101.663 306.726 101.663C304.179 101.663 304.179 105.6 306.726 105.6Z" fill="#00B1E9"/>
<path d="M347.832 135.821C350.379 135.821 350.379 131.884 347.832 131.884C345.4 131.884 345.4 135.821 347.832 135.821Z" fill="#00B1E9"/>
<path d="M334.053 141.958C333.937 141.958 333.821 141.958 333.705 141.958C333.474 141.958 333.126 141.958 332.895 142.074C332.663 142.189 332.432 142.305 332.316 142.537C332.084 142.768 331.969 142.884 331.853 143.116C331.737 143.347 331.621 143.579 331.737 143.926C331.737 144.158 331.737 144.274 331.853 144.505C331.969 144.853 332.084 145.084 332.316 145.432C332.432 145.547 332.547 145.663 332.663 145.779C333.011 146.011 333.358 146.011 333.705 146.011C333.821 146.011 333.937 146.011 334.053 146.011C334.284 146.011 334.632 146.011 334.863 145.895C335.095 145.779 335.326 145.663 335.442 145.432C335.674 145.2 335.79 145.084 335.905 144.853C336.021 144.621 336.137 144.389 336.021 144.042C336.021 143.811 336.021 143.695 335.905 143.463C335.79 143.116 335.674 142.884 335.442 142.537C335.326 142.421 335.211 142.305 335.095 142.19C334.747 142.074 334.4 141.958 334.053 141.958Z" fill="#00B1E9"/>
<path d="M361.032 163.147C363.579 163.147 363.579 159.211 361.032 159.211C358.484 159.211 358.484 163.147 361.032 163.147Z" fill="#00B1E9"/>
<path d="M382.8 202.284C385.348 202.284 385.348 198.347 382.8 198.347C380.253 198.347 380.253 202.284 382.8 202.284Z" fill="#00B1E9"/>
<path d="M297 196.379C297.116 196.379 297.232 196.379 297.348 196.379C297.579 196.379 297.927 196.379 298.158 196.263C298.39 196.147 298.621 196.032 298.737 195.8C298.969 195.568 299.084 195.453 299.2 195.221C299.316 194.99 299.432 194.758 299.316 194.411C299.316 194.179 299.316 194.063 299.2 193.832C299.084 193.484 298.969 193.253 298.737 192.905C298.621 192.79 298.506 192.674 298.39 192.558C298.042 192.326 297.695 192.326 297.348 192.326C297.232 192.326 297.116 192.326 297 192.326C296.769 192.326 296.421 192.326 296.19 192.442C295.958 192.558 295.727 192.674 295.611 192.905C295.379 193.137 295.263 193.253 295.148 193.484C295.032 193.716 294.916 193.947 295.032 194.295C295.032 194.526 295.032 194.642 295.148 194.874C295.263 195.221 295.379 195.453 295.611 195.8C295.727 195.916 295.842 196.032 295.958 196.147C296.421 196.263 296.653 196.379 297 196.379Z" fill="#00B1E9"/>
<path d="M307.074 222.895C306.958 222.895 306.842 222.895 306.726 222.895C306.495 222.895 306.147 222.895 305.916 223.011C305.684 223.126 305.453 223.242 305.337 223.474C305.105 223.705 304.989 223.821 304.874 224.053C304.758 224.284 304.642 224.516 304.758 224.863C304.758 225.095 304.758 225.211 304.874 225.442C304.989 225.789 305.105 226.021 305.337 226.368C305.453 226.484 305.568 226.6 305.684 226.716C306.032 226.947 306.379 226.947 306.726 226.947C306.842 226.947 306.958 226.947 307.074 226.947C307.305 226.947 307.653 226.947 307.884 226.832C308.116 226.716 308.347 226.6 308.463 226.368C308.695 226.137 308.811 226.021 308.926 225.789C309.042 225.558 309.158 225.326 309.042 224.979C309.042 224.747 309.042 224.632 308.926 224.4C308.811 224.053 308.695 223.821 308.463 223.474C308.347 223.358 308.232 223.242 308.116 223.126C307.768 223.011 307.421 222.895 307.074 222.895Z" fill="#00B1E9"/>
<path d="M348.411 261.568C348.295 261.568 348.179 261.568 348.063 261.568C347.832 261.568 347.484 261.568 347.253 261.684C347.021 261.8 346.79 261.916 346.674 262.147C346.442 262.379 346.326 262.495 346.211 262.726C346.095 262.958 345.979 263.19 346.095 263.537C346.095 263.768 346.095 263.884 346.211 264.116C346.326 264.463 346.442 264.695 346.674 265.042C346.79 265.158 346.905 265.274 347.021 265.389C347.369 265.621 347.716 265.621 348.063 265.621C348.179 265.621 348.295 265.621 348.411 265.621C348.642 265.621 348.99 265.621 349.221 265.505C349.453 265.389 349.684 265.274 349.8 265.042C350.032 264.811 350.147 264.695 350.263 264.463C350.379 264.232 350.495 264 350.379 263.653C350.379 263.421 350.379 263.305 350.263 263.074C350.147 262.726 350.032 262.495 349.8 262.147C349.684 262.032 349.569 261.916 349.453 261.8C349.105 261.684 348.758 261.568 348.411 261.568Z" fill="#00B1E9"/>
<path d="M173.684 147.284C176.232 147.284 176.232 143.347 173.684 143.347C171.137 143.347 171.137 147.284 173.684 147.284Z" fill="#00B1E9"/>
<path d="M70.516 276.737C70.516 276.621 70.516 276.505 70.516 276.389C70.516 276.158 70.516 275.811 70.4002 275.579C70.2844 275.347 70.1686 275.116 69.9371 275C69.7055 274.768 69.5897 274.653 69.3581 274.537C69.1265 274.421 68.895 274.305 68.5476 274.421C68.316 274.421 68.2002 274.421 67.9686 274.537C67.6213 274.653 67.3897 274.768 67.0423 275C66.9265 275.116 66.8107 275.232 66.695 275.347C66.4634 275.695 66.4634 276.042 66.4634 276.389C66.4634 276.505 66.4634 276.621 66.4634 276.737C66.4634 276.968 66.4634 277.316 66.5792 277.547C66.695 277.779 66.8107 278.011 67.0423 278.126C67.2739 278.358 67.3897 278.474 67.6213 278.589C67.8529 278.705 68.0844 278.821 68.4318 278.705C68.6634 278.705 68.7792 278.705 69.0107 278.589C69.3581 278.474 69.5897 278.358 69.9371 278.126C70.0529 278.011 70.1686 277.895 70.2844 277.779C70.4002 277.432 70.516 277.084 70.516 276.737Z" fill="#00B1E9"/>
<path d="M125.169 325.716C127.716 325.716 127.716 321.779 125.169 321.779C122.621 321.779 122.621 325.716 125.169 325.716Z" fill="#00B1E9"/>
<path d="M213.053 350.263C215.6 350.263 215.6 346.326 213.053 346.326C210.506 346.326 210.506 350.263 213.053 350.263Z" fill="#00B1E9"/>
<path d="M184.337 376.547C186.885 376.547 186.885 372.611 184.337 372.611C181.79 372.611 181.79 376.547 184.337 376.547Z" fill="#00B1E9"/>
<path d="M246.285 330.926C248.832 330.926 248.832 326.989 246.285 326.989C243.737 326.989 243.737 330.926 246.285 330.926Z" fill="#00B1E9"/>
<path d="M188.621 253.463C188.853 253.463 189.085 253.463 189.316 253.463C189.548 253.463 189.895 253.463 190.127 253.347C190.358 253.232 190.59 253.116 190.706 252.884C190.937 252.653 191.053 252.537 191.169 252.305C191.285 252.074 191.4 251.842 191.285 251.495C191.285 251.263 191.285 251.147 191.169 250.916C191.053 250.568 190.937 250.337 190.706 249.989C190.59 249.874 190.474 249.758 190.358 249.642C190.011 249.411 189.663 249.411 189.316 249.411C189.085 249.411 188.853 249.411 188.621 249.411C188.39 249.411 188.042 249.411 187.811 249.526C187.579 249.642 187.348 249.758 187.232 249.989C187 250.221 186.885 250.337 186.769 250.568C186.653 250.8 186.537 251.032 186.653 251.379C186.653 251.611 186.653 251.726 186.769 251.958C186.885 252.305 187 252.537 187.232 252.884C187.348 253 187.463 253.116 187.579 253.232C187.927 253.347 188.274 253.463 188.621 253.463Z" fill="#00B1E9"/>
<path d="M318.885 301.516C319 301.516 319.116 301.516 319.232 301.516C319.464 301.516 319.811 301.516 320.042 301.4C320.274 301.284 320.506 301.168 320.621 300.937C320.853 300.705 320.969 300.589 321.085 300.358C321.2 300.126 321.316 299.895 321.2 299.547C321.2 299.316 321.2 299.2 321.085 298.968C320.969 298.621 320.853 298.389 320.621 298.042C320.506 297.926 320.39 297.811 320.274 297.695C319.927 297.463 319.579 297.463 319.232 297.463C319.116 297.463 319 297.463 318.885 297.463C318.653 297.463 318.306 297.463 318.074 297.579C317.842 297.695 317.611 297.811 317.495 298.042C317.263 298.274 317.148 298.389 317.032 298.621C316.916 298.853 316.8 299.084 316.916 299.432C316.916 299.663 316.916 299.779 317.032 300.011C317.148 300.358 317.263 300.589 317.495 300.937C317.611 301.053 317.727 301.168 317.842 301.284C318.19 301.4 318.537 301.516 318.885 301.516Z" fill="#00B1E9"/>
<path d="M377.243 253.463C379.79 253.463 379.79 249.526 377.243 249.526C374.695 249.526 374.695 253.463 377.243 253.463Z" fill="#00B1E9"/>
<path d="M383.148 228.221C385.695 228.221 385.695 224.284 383.148 224.284C380.6 224.284 380.6 228.221 383.148 228.221Z" fill="#00B1E9"/>
<path d="M153.653 292.832L125.169 323.747L68.5478 276.389L47.4741 257.632" stroke="#00B1E9" stroke-width="0.9921" stroke-miterlimit="10" stroke-linecap="round" stroke-linejoin="round"/>
<path d="M67.2739 138.947L119.842 151.221" stroke="#00B1E9" stroke-width="0.9921" stroke-miterlimit="10" stroke-linecap="round" stroke-linejoin="round"/>
<path d="M125.168 235.516L189.316 251.495L153.653 292.832L125.168 235.516ZM125.168 235.516L68.5474 276.389L69.3579 314.832L125.168 323.747L99.9263 352.695L141.958 353.853L125.168 323.747L213.053 348.295L153.653 292.832L68.5474 276.389" stroke="#00B1E9" stroke-width="0.9921" stroke-miterlimit="10" stroke-linecap="round" stroke-linejoin="round"/>
<path d="M93.4424 177.158L125.169 235.516" stroke="#00B1E9" stroke-width="0.9921" stroke-miterlimit="10" stroke-linecap="round" stroke-linejoin="round"/>
<path d="M141.958 353.853L213.053 348.295L184.337 374.579L154.347 387.2L141.958 353.853ZM141.958 353.853L184.337 374.579L202.863 398.663L218.379 369.368L279.053 387.2L306.263 315.411" stroke="#00B1E9" stroke-width="0.9921" stroke-miterlimit="10" stroke-linecap="round" stroke-linejoin="round"/>
<path d="M213.053 348.295L218.379 369.368L184.337 374.579" stroke="#00B1E9" stroke-width="1.5591" stroke-miterlimit="10"/>
<path d="M218.379 369.368L246.285 328.958L279.864 387.2" stroke="#00B1E9" stroke-width="0.9921" stroke-miterlimit="10" stroke-linecap="round" stroke-linejoin="round"/>
<path d="M204.253 104.095L157.59 92.6316L104.558 113.126" stroke="#00B1E9" stroke-width="0.9921" stroke-miterlimit="10" stroke-linecap="round" stroke-linejoin="round"/>
<path d="M297.347 194.411L307.074 151.221L274.19 150.526L251.263 94.8316L307.074 151.221L306.726 103.632L334.053 143.926L327.453 89.1579L306.726 103.632L251.263 94.8316L292.368 82.6737L278.474 61.6L251.263 94.8316" stroke="#00B1E9" stroke-width="0.9921" stroke-miterlimit="10" stroke-linecap="round" stroke-linejoin="round"/>
<path d="M153.653 63.5684L204.253 104.095L251.263 94.8316L238.411 128.642L274.19 150.526L219.305 172.411L238.411 128.642L204.253 104.095L173.684 145.316L219.305 172.411L204.253 104.095L201.474 51.8737L251.263 94.8316L247.095 53.379" stroke="#00B1E9" stroke-width="0.9921" stroke-miterlimit="10" stroke-linecap="round" stroke-linejoin="round"/>
<path d="M189.316 251.495L168.011 209.579L219.305 172.411L246.4 209.579L189.316 251.495ZM189.316 251.495L218.379 272.684L246.4 209.579L275.811 287.737L307.074 224.863L297.348 194.411L348.179 170.211L334.053 143.926L346.442 134.432H367.4L361.032 161.179L383.842 169.632L382.8 200.316L348.179 170.211L361.032 161.179L334.053 143.926L307.074 151.221L348.179 170.211L383.842 169.632" stroke="#00B1E9" stroke-width="0.9921" stroke-miterlimit="10" stroke-linecap="round" stroke-linejoin="round"/>
<path d="M168.011 209.579H246.4L274.19 150.526L297.348 194.411L246.4 209.579L307.074 224.863L342.737 225.326L297.348 194.411" stroke="#00B1E9" stroke-width="0.9921" stroke-miterlimit="10" stroke-linecap="round" stroke-linejoin="round"/>
<path d="M348.179 170.211L342.737 225.326L382.8 200.316L392.179 209.695L383.148 226.253L382.8 200.316" stroke="#00B1E9" stroke-width="0.9921" stroke-miterlimit="10" stroke-linecap="round" stroke-linejoin="round"/>
<path d="M383.148 226.253L377.243 251.495L342.737 225.326L383.148 226.253ZM383.148 226.253L391.716 245.705L377.243 251.495L382.916 283.337" stroke="#00B1E9" stroke-width="0.9921" stroke-miterlimit="10" stroke-linecap="round" stroke-linejoin="round"/>
<path d="M342.737 225.326L348.411 263.537L377.243 251.495" stroke="#00B1E9" stroke-width="0.8504" stroke-miterlimit="10"/>
<path d="M153.653 292.832L218.379 273.726L275.811 287.737L246.284 328.958L218.379 273.726L213.053 348.295L246.284 328.958L306.263 315.411L275.811 287.737L319.232 299.547L306.263 315.411L328.032 360.8L319.232 299.547L363.348 322.242L348.411 263.537L319.232 299.547L307.074 224.863L348.411 263.537" stroke="#00B1E9" stroke-width="0.9921" stroke-miterlimit="10" stroke-linecap="round" stroke-linejoin="round"/>
<path d="M306.727 102.126L292.369 82.6737L327.453 89.1579L347.832 133.853L361.032 161.179" stroke="#00B1E9" stroke-width="0.9921" stroke-miterlimit="10" stroke-linecap="round" stroke-linejoin="round"/>
<path d="M51.5265 176.232L125.169 235.516L168.011 209.579L93.4423 177.158L67.2739 138.947L104.558 113.126L153.653 63.5684L157.59 92.6316L173.684 145.316L119.842 151.221L104.558 113.126L173.684 145.316L168.011 209.579L119.842 151.221L93.4423 177.158L51.5265 176.232ZM51.5265 176.232L75.1476 230.305L44.4634 225.211L68.5476 276.389L75.1476 230.305L125.169 235.516" stroke="#00B1E9" stroke-width="0.9921" stroke-miterlimit="10" stroke-linecap="round" stroke-linejoin="round"/>
<path d="M105.716 92.6316L104.558 113.126" stroke="#00B1E9" stroke-width="0.9921" stroke-miterlimit="10" stroke-linecap="round" stroke-linejoin="round"/>
<path d="M86.2633 76.1895C89.2739 76.1895 89.2739 71.5579 86.2633 71.5579C83.3686 71.5579 83.3686 76.1895 86.2633 76.1895Z" fill="#00B1E9"/>
<path d="M79.4317 103.053C82.4422 103.053 82.4422 98.4211 79.4317 98.4211C76.4212 98.4211 76.4212 103.053 79.4317 103.053Z" fill="#00B1E9"/>
<path d="M69.4737 98.0737C72.4842 98.0737 72.4842 93.4421 69.4737 93.4421C66.4632 93.4421 66.4632 98.0737 69.4737 98.0737Z" fill="#00B1E9"/>
<path d="M71.3263 109.884C74.3368 109.884 74.3368 105.253 71.3263 105.253C68.3157 105.253 68.3157 109.884 71.3263 109.884Z" fill="#00B1E9"/>
<path d="M305.8 64.2632C308.81 64.2632 308.81 59.6316 305.8 59.6316C302.905 59.6316 302.905 64.2632 305.8 64.2632Z" fill="#00B1E9"/>
<path d="M288.895 19.9158C289.358 19.9158 289.705 19.9158 290.169 19.9158C290.516 19.9158 290.748 19.9158 291.095 19.6842C291.326 19.5684 291.674 19.4526 291.79 19.2211C292.021 18.9895 292.137 18.7579 292.253 18.5263C292.369 18.2947 292.484 17.9474 292.484 17.6C292.484 17.3684 292.484 17.1368 292.369 17.0211C292.253 16.6737 292.021 16.3263 291.79 15.9789C291.674 15.8632 291.442 15.7474 291.326 15.6316C290.979 15.4 290.632 15.2842 290.169 15.2842C289.705 15.2842 289.358 15.2842 288.895 15.2842C288.548 15.2842 288.316 15.2842 287.969 15.5158C287.737 15.6316 287.39 15.7474 287.274 15.9789C287.042 16.2105 286.926 16.4421 286.811 16.6737C286.695 16.9053 286.579 17.2526 286.579 17.6C286.579 17.8316 286.579 18.0632 286.695 18.1789C286.811 18.5263 287.042 18.8737 287.274 19.2211C287.39 19.3368 287.621 19.4526 287.737 19.5684C288.084 19.8 288.548 19.9158 288.895 19.9158Z" fill="#00B1E9"/>
<path d="M372.148 99.3474C375.158 99.3474 375.158 94.7158 372.148 94.7158C369.137 94.7158 369.137 99.3474 372.148 99.3474Z" fill="#00B1E9"/>
<path d="M373.421 118.105C376.432 118.105 376.432 113.474 373.421 113.474C370.41 113.474 370.41 118.105 373.421 118.105Z" fill="#00B1E9"/>
<path d="M413.368 110.579C416.379 110.579 416.379 105.947 413.368 105.947C410.474 105.947 410.474 110.579 413.368 110.579Z" fill="#00B1E9"/>
<path d="M427.842 224.168C427.379 224.168 427.031 224.168 426.568 224.168C426.221 224.168 425.989 224.168 425.642 224.4C425.41 224.516 425.063 224.632 424.947 224.863C424.716 225.095 424.6 225.326 424.484 225.558C424.368 225.789 424.252 226.137 424.252 226.484C424.252 226.716 424.252 226.947 424.368 227.063C424.484 227.411 424.716 227.758 424.947 228.105C425.063 228.221 425.295 228.337 425.41 228.453C425.758 228.684 426.105 228.8 426.568 228.8C427.031 228.8 427.379 228.8 427.842 228.8C428.189 228.8 428.421 228.8 428.768 228.568C429 228.453 429.347 228.337 429.463 228.105C429.695 227.874 429.81 227.642 429.926 227.411C430.042 227.179 430.158 226.832 430.158 226.484C430.158 226.253 430.158 226.021 430.042 225.905C429.926 225.558 429.695 225.211 429.463 224.863C429.347 224.747 429.116 224.632 429 224.516C428.652 224.284 428.189 224.168 427.842 224.168Z" fill="#00B1E9"/>
<path d="M403.411 215.021C403.642 215.021 403.874 215.021 403.989 215.021C404.337 215.021 404.568 215.021 404.916 214.789C405.147 214.674 405.495 214.558 405.611 214.326C405.842 214.095 405.958 213.863 406.074 213.632C406.189 213.4 406.305 213.053 406.305 212.705C406.305 212.474 406.305 212.242 406.189 212.126C406.074 211.779 405.842 211.432 405.611 211.084C405.495 210.968 405.263 210.853 405.147 210.737C404.8 210.505 404.453 210.389 403.989 210.389C403.758 210.389 403.526 210.389 403.411 210.389C403.063 210.389 402.832 210.389 402.484 210.621C402.253 210.737 401.905 210.853 401.789 211.084C401.558 211.316 401.442 211.547 401.326 211.779C401.211 212.011 401.095 212.358 401.095 212.705C401.095 212.937 401.095 213.168 401.211 213.284C401.326 213.632 401.558 213.979 401.789 214.326C401.905 214.442 402.137 214.558 402.253 214.674C402.6 214.905 402.947 215.021 403.411 215.021Z" fill="#00B1E9"/>
<path d="M406.537 274.421C409.547 274.421 409.547 269.789 406.537 269.789C403.526 269.789 403.526 274.421 406.537 274.421Z" fill="#00B1E9"/>
<path d="M399.01 285.074C402.021 285.074 402.021 280.442 399.01 280.442C396 280.442 396 285.074 399.01 285.074Z" fill="#00B1E9"/>
<path d="M392.179 276.968C392.411 276.968 392.642 276.968 392.758 276.968C393.105 276.968 393.337 276.968 393.684 276.737C393.916 276.621 394.263 276.505 394.379 276.274C394.611 276.042 394.726 275.811 394.842 275.579C394.958 275.347 395.074 275 395.074 274.653C395.074 274.421 395.074 274.189 394.958 274.074C394.842 273.726 394.611 273.379 394.379 273.032C394.263 272.916 394.032 272.8 393.916 272.684C393.569 272.453 393.221 272.337 392.758 272.337C392.526 272.337 392.295 272.337 392.179 272.337C391.832 272.337 391.6 272.337 391.253 272.568C391.021 272.684 390.674 272.8 390.558 273.032C390.326 273.263 390.211 273.495 390.095 273.726C389.979 273.958 389.863 274.305 389.863 274.653C389.863 274.884 389.863 275.116 389.979 275.232C390.095 275.579 390.326 275.926 390.558 276.274C390.674 276.389 390.905 276.505 391.021 276.621C391.369 276.853 391.716 276.968 392.179 276.968Z" fill="#00B1E9"/>
<path d="M353.968 343.895C356.979 343.895 356.979 339.263 353.968 339.263C350.958 339.263 350.958 343.895 353.968 343.895Z" fill="#00B1E9"/>
<path d="M353.389 380.137C356.4 380.137 356.4 375.505 353.389 375.505C350.379 375.505 350.379 380.137 353.389 380.137Z" fill="#00B1E9"/>
<path d="M292.021 399.474C295.032 399.474 295.032 394.842 292.021 394.842C289.126 394.842 289.126 399.474 292.021 399.474Z" fill="#00B1E9"/>
<path d="M185.148 332.547C188.158 332.547 188.158 327.916 185.148 327.916C182.137 327.916 182.137 332.547 185.148 332.547Z" fill="#00B1E9"/>
<path d="M182.021 293.179C185.032 293.179 185.032 288.547 182.021 288.547C179.011 288.547 179.011 293.179 182.021 293.179Z" fill="#00B1E9"/>
<path d="M176.348 193.137C176.579 193.137 176.811 193.137 176.926 193.137C177.274 193.137 177.505 193.137 177.853 192.905C178.084 192.789 178.432 192.674 178.548 192.442C178.779 192.211 178.895 191.979 179.011 191.747C179.126 191.516 179.242 191.168 179.242 190.821C179.242 190.589 179.242 190.358 179.126 190.242C179.011 189.895 178.779 189.547 178.548 189.2C178.432 189.084 178.2 188.968 178.084 188.853C177.737 188.621 177.39 188.505 176.926 188.505C176.695 188.505 176.463 188.505 176.348 188.505C176 188.505 175.769 188.505 175.421 188.737C175.19 188.853 174.842 188.968 174.726 189.2C174.495 189.432 174.379 189.663 174.263 189.895C174.148 190.126 174.032 190.474 174.032 190.821C174.032 191.053 174.032 191.284 174.148 191.4C174.263 191.747 174.495 192.095 174.726 192.442C174.842 192.558 175.074 192.674 175.19 192.789C175.537 193.021 176 193.137 176.348 193.137Z" fill="#00B1E9"/>
<path d="M81.9791 224.4C84.9896 224.4 84.9896 219.768 81.9791 219.768C78.9686 219.768 78.9686 224.4 81.9791 224.4Z" fill="#00B1E9"/>
<path d="M152.147 129.568C152.147 129.8 152.147 130.032 152.147 130.147C152.147 130.495 152.147 130.726 152.379 131.074C152.495 131.305 152.611 131.653 152.842 131.768C153.074 132 153.305 132.116 153.537 132.232C153.769 132.347 154.116 132.463 154.463 132.463C154.695 132.463 154.926 132.463 155.042 132.347C155.39 132.232 155.737 132 156.084 131.768C156.2 131.653 156.316 131.421 156.432 131.305C156.663 130.958 156.779 130.611 156.779 130.147C156.779 129.916 156.779 129.684 156.779 129.568C156.779 129.221 156.779 128.989 156.547 128.642C156.432 128.411 156.316 128.063 156.084 127.947C155.853 127.716 155.621 127.6 155.39 127.484C155.158 127.368 154.811 127.253 154.463 127.253C154.232 127.253 154 127.253 153.884 127.368C153.537 127.484 153.19 127.716 152.842 127.947C152.726 128.063 152.611 128.295 152.495 128.411C152.263 128.758 152.147 129.105 152.147 129.568Z" fill="#00B1E9"/>
<path d="M62.5264 329.421C65.537 329.421 65.537 324.789 62.5264 324.789C59.5159 324.789 59.5159 329.421 62.5264 329.421Z" fill="#00B1E9"/>
<path d="M54.421 300.705C57.4315 300.705 57.4315 296.074 54.421 296.074C51.4105 296.074 51.4105 300.705 54.421 300.705Z" fill="#00B1E9"/>
<path d="M81.9791 109.305C84.0633 109.305 84.0633 106.063 81.9791 106.063C79.7791 105.947 79.7791 109.305 81.9791 109.305Z" fill="#00B1E9"/>
<path d="M138.252 61.7158C140.337 61.7158 140.337 58.4737 138.252 58.4737C136.168 58.4737 136.052 61.7158 138.252 61.7158Z" fill="#00B1E9"/>
<path d="M118.8 72.3684C120.884 72.3684 120.884 69.1263 118.8 69.1263C116.716 69.1263 116.716 72.3684 118.8 72.3684Z" fill="#00B1E9"/>
<path d="M175.074 33C177.158 33 177.158 29.7579 175.074 29.7579C172.99 29.6421 172.99 33 175.074 33Z" fill="#00B1E9"/>
<path d="M278.358 51.7579C280.442 51.7579 280.442 48.5158 278.358 48.5158C276.158 48.4 276.158 51.7579 278.358 51.7579Z" fill="#00B1E9"/>
<path d="M326.526 60.4421C328.611 60.4421 328.611 57.2 326.526 57.2C324.326 57.2 324.326 60.4421 326.526 60.4421Z" fill="#00B1E9"/>
<path d="M313.326 75.4947C315.411 75.4947 315.411 72.2526 313.326 72.2526C311.242 72.2526 311.242 75.4947 313.326 75.4947Z" fill="#00B1E9"/>
<path d="M376.547 121.579C376.316 121.579 376.084 121.579 375.968 121.579C375.737 121.579 375.505 121.579 375.389 121.695C375.158 121.811 375.042 121.926 374.81 122.042C374.695 122.158 374.579 122.389 374.463 122.621C374.347 122.853 374.347 123.084 374.347 123.2C374.347 123.316 374.347 123.547 374.463 123.663C374.579 123.895 374.695 124.126 374.926 124.358C375.042 124.474 375.158 124.474 375.274 124.589C375.505 124.705 375.852 124.821 376.084 124.821C376.316 124.821 376.547 124.821 376.663 124.821C376.895 124.821 377.126 124.821 377.242 124.705C377.473 124.589 377.589 124.474 377.821 124.358C377.937 124.242 378.052 124.011 378.168 123.779C378.284 123.547 378.284 123.316 378.284 123.2C378.284 123.084 378.284 122.853 378.168 122.737C378.052 122.505 377.937 122.274 377.705 122.042C377.589 121.926 377.473 121.926 377.358 121.811C377.126 121.695 376.779 121.579 376.547 121.579Z" fill="#00B1E9"/>
<path d="M414.642 173.105C416.726 173.105 416.726 169.863 414.642 169.863C412.558 169.747 412.558 173.105 414.642 173.105Z" fill="#00B1E9"/>
<path d="M407.811 164.305C409.895 164.305 409.895 161.063 407.811 161.063C405.611 161.063 405.611 164.305 407.811 164.305Z" fill="#00B1E9"/>
<path d="M403.41 188.042C405.495 188.042 405.495 184.8 403.41 184.8C401.326 184.8 401.326 188.042 403.41 188.042Z" fill="#00B1E9"/>
<path d="M415.916 231.811C418 231.811 418 228.568 415.916 228.568C413.831 228.568 413.831 231.811 415.916 231.811Z" fill="#00B1E9"/>
<path d="M412.211 238.063C414.295 238.063 414.295 234.821 412.211 234.821C410.011 234.821 410.011 238.063 412.211 238.063Z" fill="#00B1E9"/>
<path d="M405.263 290.632C407.348 290.632 407.348 287.389 405.263 287.389C403.179 287.389 403.179 290.632 405.263 290.632Z" fill="#00B1E9"/>
<path d="M392.179 290.632C394.263 290.632 394.263 287.389 392.179 287.389C389.979 287.389 389.979 290.632 392.179 290.632Z" fill="#00B1E9"/>
<path d="M363.232 292.6C363.463 292.368 363.695 292.137 363.811 292.021C363.926 291.905 364.042 291.674 364.158 291.442C364.274 291.211 364.274 290.979 364.274 290.863C364.274 290.632 364.274 290.4 364.158 290.284C364.042 290.053 363.926 289.937 363.811 289.705C363.695 289.589 363.579 289.589 363.463 289.474C363.232 289.358 362.884 289.242 362.653 289.242C362.537 289.242 362.305 289.242 362.189 289.358C361.958 289.474 361.726 289.589 361.495 289.821C361.263 290.053 361.032 290.284 360.916 290.4C360.8 290.516 360.684 290.747 360.568 290.979C360.453 291.211 360.453 291.442 360.453 291.558C360.453 291.789 360.453 292.021 360.568 292.137C360.684 292.368 360.8 292.484 360.916 292.716C361.032 292.832 361.147 292.832 361.263 292.947C361.495 293.063 361.842 293.179 362.074 293.179C362.19 293.179 362.421 293.179 362.537 293.063C362.884 292.947 363.116 292.832 363.232 292.6Z" fill="#00B1E9"/>
<path d="M378.979 367.516C381.063 367.516 381.063 364.274 378.979 364.274C376.895 364.274 376.895 367.516 378.979 367.516Z" fill="#00B1E9"/>
<path d="M415.916 338.221C418 338.221 418 334.979 415.916 334.979C413.831 334.863 413.831 338.221 415.916 338.221Z" fill="#00B1E9"/>
<path d="M353.389 379.442C355.474 379.442 355.474 376.2 353.389 376.2C351.305 376.2 351.305 379.442 353.389 379.442Z" fill="#00B1E9"/>
<path d="M315.874 375.737C316.105 375.737 316.337 375.737 316.453 375.737C316.684 375.737 316.916 375.737 317.031 375.621C317.263 375.505 317.379 375.389 317.61 375.274C317.726 375.158 317.842 374.926 317.958 374.695C318.074 374.463 318.074 374.232 318.074 374.116C318.074 374 318.074 373.768 317.958 373.653C317.842 373.421 317.726 373.189 317.495 372.958C317.379 372.842 317.263 372.842 317.147 372.726C316.916 372.611 316.568 372.495 316.337 372.495C316.105 372.495 315.874 372.495 315.758 372.495C315.526 372.495 315.295 372.495 315.179 372.611C314.947 372.726 314.831 372.842 314.6 372.958C314.484 373.074 314.368 373.305 314.253 373.537C314.137 373.768 314.137 374 314.137 374.116C314.137 374.232 314.137 374.463 314.253 374.579C314.368 374.811 314.484 375.042 314.716 375.274C314.831 375.389 314.947 375.389 315.063 375.505C315.295 375.621 315.526 375.737 315.874 375.737Z" fill="#00B1E9"/>
<path d="M307.074 383.147C309.158 383.147 309.158 379.905 307.074 379.905C304.99 379.905 304.99 383.147 307.074 383.147Z" fill="#00B1E9"/>
<path d="M263.305 403.179C265.39 403.179 265.39 399.937 263.305 399.937C261.221 399.937 261.221 403.179 263.305 403.179Z" fill="#00B1E9"/>
<path d="M213.284 403.874C215.369 403.874 215.369 400.632 213.284 400.632C211.2 400.516 211.2 403.874 213.284 403.874Z" fill="#00B1E9"/>
<path d="M202.632 387.547C204.716 387.547 204.716 384.305 202.632 384.305C200.547 384.305 200.547 387.547 202.632 387.547Z" fill="#00B1E9"/>
<path d="M175.305 387.316C175.768 387.084 176.116 386.853 176.579 386.737C176.81 386.621 176.926 386.505 177.042 386.274C177.158 386.158 177.273 385.926 177.389 385.695C177.505 385.463 177.505 385.232 177.389 385C177.389 384.768 177.273 384.537 177.158 384.421C177.042 384.305 177.042 384.189 176.926 384.074C176.695 383.842 176.463 383.726 176.231 383.611C176.116 383.611 175.884 383.611 175.768 383.495C175.421 383.495 175.189 383.611 174.958 383.726C174.495 383.958 174.147 384.189 173.684 384.305C173.452 384.421 173.337 384.537 173.221 384.768C173.105 384.884 172.989 385.116 172.873 385.347C172.758 385.579 172.758 385.811 172.873 386.042C172.873 386.274 172.989 386.505 173.105 386.621C173.221 386.737 173.221 386.853 173.337 386.968C173.568 387.2 173.8 387.316 174.031 387.432C174.147 387.432 174.379 387.432 174.495 387.547C174.726 387.547 175.073 387.432 175.305 387.316Z" fill="#00B1E9"/>
<path d="M76.884 308.811C78.9682 308.811 78.9682 305.568 76.884 305.568C74.7997 305.453 74.7997 308.811 76.884 308.811Z" fill="#00B1E9"/>
<path d="M77.5788 111.737C78.8525 111.737 78.8525 109.768 77.5788 109.768C76.3051 109.768 76.3051 111.737 77.5788 111.737Z" fill="#00B1E9"/>
<path d="M109.421 77.9263C110.695 77.9263 110.695 75.9579 109.421 75.9579C108.147 75.9579 108.147 77.9263 109.421 77.9263Z" fill="#00B1E9"/>
<path d="M128.874 50.4842C130.147 50.4842 130.147 48.5158 128.874 48.5158C127.6 48.5158 127.6 50.4842 128.874 50.4842Z" fill="#00B1E9"/>
<path d="M183.295 41.1053C184.568 41.1053 184.568 39.1368 183.295 39.1368C182.021 39.1368 182.021 41.1053 183.295 41.1053Z" fill="#00B1E9"/>
<path d="M284.611 52.3368C285.884 52.3368 285.884 50.3684 284.611 50.3684C283.337 50.3684 283.337 52.3368 284.611 52.3368Z" fill="#00B1E9"/>
<path d="M325.484 23.1579C325.484 23.3895 325.484 23.621 325.484 23.7368C325.484 23.8526 325.484 23.9684 325.6 24.0842C325.6 24.2 325.716 24.3158 325.832 24.4316C325.948 24.5474 326.063 24.5474 326.179 24.6631C326.295 24.7789 326.411 24.7789 326.526 24.7789C326.642 24.7789 326.758 24.7789 326.758 24.7789C326.874 24.7789 327.105 24.6631 327.221 24.5474C327.221 24.4316 327.337 24.4316 327.337 24.3158C327.453 24.2 327.453 23.9684 327.453 23.8526C327.453 23.621 327.453 23.3895 327.453 23.2737C327.453 23.1579 327.453 23.0421 327.337 22.9263C327.337 22.8105 327.221 22.6947 327.105 22.5789C326.99 22.4631 326.874 22.4631 326.758 22.3474C326.642 22.2316 326.526 22.2316 326.411 22.2316C326.295 22.2316 326.179 22.2316 326.179 22.2316C326.063 22.2316 325.832 22.3474 325.716 22.4631C325.716 22.5789 325.6 22.5789 325.6 22.6947C325.484 22.8105 325.484 23.0421 325.484 23.1579Z" fill="#00B1E9"/>
<path d="M387.084 101.084C388.358 101.084 388.358 99.1158 387.084 99.1158C385.926 99.1158 385.926 101.084 387.084 101.084Z" fill="#00B1E9"/>
<path d="M348.41 97.9579C349.684 97.9579 349.684 95.9895 348.41 95.9895C347.137 95.9895 347.137 97.9579 348.41 97.9579Z" fill="#00B1E9"/>
<path d="M347.137 86.7263C348.411 86.7263 348.411 84.7579 347.137 84.7579C345.863 84.7579 345.863 86.7263 347.137 86.7263Z" fill="#00B1E9"/>
<path d="M399.705 199.274C400.979 199.274 400.979 197.305 399.705 197.305C398.432 197.305 398.432 199.274 399.705 199.274Z" fill="#00B1E9"/>
<path d="M409.663 174.263C410.937 174.263 410.937 172.295 409.663 172.295C408.39 172.295 408.39 174.263 409.663 174.263Z" fill="#00B1E9"/>
<path d="M419.042 238.642C420.316 238.642 420.316 236.674 419.042 236.674C417.768 236.674 417.768 238.642 419.042 238.642Z" fill="#00B1E9"/>
<path d="M400.284 273.147C400.516 273.147 400.747 273.147 400.863 273.147C400.979 273.147 401.095 273.147 401.211 273.032C401.326 273.032 401.442 272.916 401.558 272.8C401.674 272.684 401.674 272.568 401.789 272.453C401.905 272.337 401.905 272.221 401.905 272.105C401.905 271.989 401.905 271.874 401.905 271.874C401.905 271.758 401.789 271.526 401.674 271.411C401.558 271.411 401.558 271.295 401.442 271.295C401.326 271.179 401.095 271.179 400.979 271.179C400.747 271.179 400.516 271.179 400.4 271.179C400.284 271.179 400.168 271.179 400.053 271.295C399.937 271.295 399.821 271.411 399.705 271.526C399.59 271.642 399.589 271.758 399.474 271.874C399.358 271.989 399.358 272.105 399.358 272.221C399.358 272.337 399.358 272.453 399.358 272.453C399.358 272.568 399.474 272.8 399.59 272.916C399.705 272.916 399.705 273.032 399.821 273.032C399.937 273.032 400.053 273.147 400.284 273.147Z" fill="#00B1E9"/>
<path d="M356.516 343.084C357.789 343.084 357.789 341.116 356.516 341.116C355.242 341.116 355.242 343.084 356.516 343.084Z" fill="#00B1E9"/>
<path d="M327.105 376.895C328.379 376.895 328.379 374.926 327.105 374.926C325.831 374.926 325.831 376.895 327.105 376.895Z" fill="#00B1E9"/>
<path d="M327.105 370.526C326.874 370.526 326.642 370.526 326.526 370.526C326.411 370.526 326.295 370.526 326.179 370.642C326.063 370.642 325.948 370.758 325.832 370.874C325.716 370.989 325.716 371.105 325.6 371.221C325.484 371.337 325.484 371.453 325.484 371.568C325.484 371.684 325.484 371.8 325.484 371.8C325.484 371.916 325.6 372.147 325.716 372.263C325.832 372.263 325.832 372.379 325.948 372.379C326.063 372.495 326.295 372.495 326.411 372.495C326.642 372.495 326.874 372.495 326.99 372.495C327.105 372.495 327.221 372.495 327.337 372.379C327.453 372.379 327.569 372.263 327.684 372.147C327.8 372.032 327.8 371.916 327.916 371.8C328.032 371.684 328.032 371.568 328.032 371.453C328.032 371.337 328.032 371.221 328.032 371.221C328.032 371.105 327.916 370.874 327.8 370.758C327.684 370.758 327.684 370.642 327.569 370.642C327.453 370.642 327.221 370.526 327.105 370.526Z" fill="#00B1E9"/>
<path d="M265.158 405.726C266.432 405.726 266.432 403.758 265.158 403.758C263.884 403.758 263.884 405.726 265.158 405.726Z" fill="#00B1E9"/>
<path d="M45.3893 166.389C45.3893 166.158 45.3893 165.926 45.3893 165.811C45.3893 165.695 45.3893 165.579 45.2735 165.463C45.2735 165.347 45.1577 165.232 45.042 165.116C44.9262 165 44.8104 165 44.6946 164.884C44.5788 164.768 44.463 164.768 44.3472 164.768C44.2314 164.768 44.1156 164.768 44.1156 164.768C43.9998 164.768 43.7683 164.884 43.6525 165C43.6525 165.116 43.5367 165.116 43.5367 165.232C43.4209 165.347 43.4209 165.579 43.4209 165.695C43.4209 165.926 43.4209 166.158 43.4209 166.274C43.4209 166.389 43.4209 166.505 43.5367 166.621C43.5367 166.737 43.6525 166.853 43.7683 166.968C43.8841 167.084 43.9998 167.084 44.1156 167.2C44.2314 167.316 44.3472 167.316 44.463 167.316C44.5788 167.316 44.6946 167.316 44.6946 167.316C44.8104 167.316 45.042 167.2 45.1577 167.084C45.1577 166.968 45.2735 166.968 45.2735 166.853C45.3893 166.737 45.3893 166.621 45.3893 166.389Z" fill="#00B1E9"/>
<path d="M40.0632 149.253C41.3369 149.253 41.3369 147.284 40.0632 147.284C38.7895 147.284 38.7895 149.253 40.0632 149.253Z" fill="#00B1E9"/>
<path d="M33.8105 217.337C33.5789 217.337 33.3473 217.337 33.2316 217.337C33.1158 217.337 33 217.337 32.8842 217.453C32.7684 217.453 32.6526 217.568 32.5368 217.684C32.421 217.8 32.421 217.916 32.3052 218.032C32.1895 218.147 32.1895 218.263 32.1895 218.379C32.1895 218.495 32.1895 218.611 32.1895 218.611C32.1895 218.726 32.3052 218.958 32.421 219.074C32.5368 219.074 32.5368 219.189 32.6526 219.189C32.7684 219.305 33 219.305 33.1158 219.305C33.3473 219.305 33.5789 219.305 33.6947 219.305C33.8105 219.305 33.9263 219.305 34.0421 219.189C34.1579 219.189 34.2737 219.074 34.3895 218.958C34.5052 218.842 34.5052 218.726 34.621 218.611C34.7368 218.495 34.7368 218.379 34.7368 218.263C34.7368 218.147 34.7368 218.032 34.7368 218.032C34.7368 217.916 34.621 217.684 34.5052 217.568C34.3895 217.568 34.3895 217.453 34.2737 217.453C34.1579 217.337 33.9263 217.337 33.8105 217.337Z" fill="#00B1E9"/>
<path d="M39.3683 199.968C40.642 199.968 40.642 198 39.3683 198C38.0947 198 38.0947 199.968 39.3683 199.968Z" fill="#00B1E9"/>
<path d="M71.3264 330C72.6 330 72.6 328.032 71.3264 328.032C70.0527 328.032 70.0527 330 71.3264 330Z" fill="#00B1E9"/>
<path d="M130.147 265.621C131.421 265.621 131.421 263.653 130.147 263.653C128.873 263.653 128.873 265.621 130.147 265.621Z" fill="#00B1E9"/>
<path d="M262.031 164.884C263.305 164.884 263.305 162.916 262.031 162.916C260.758 162.916 260.758 164.884 262.031 164.884Z" fill="#00B1E9"/>
<path d="M152.611 396.926C153.884 396.926 153.884 394.958 152.611 394.958C151.337 394.958 151.337 396.926 152.611 396.926Z" fill="#00B1E9"/>
<path d="M185.147 288.084C186.421 288.084 186.421 286.116 185.147 286.116C183.873 286.116 183.873 288.084 185.147 288.084Z" fill="#00B1E9"/>
<path d="M239.569 207.379C240.842 207.379 240.842 205.411 239.569 205.411C238.295 205.411 238.295 207.379 239.569 207.379Z" fill="#00B1E9"/>
<path d="M245.126 202.4C246.4 202.4 246.4 200.432 245.126 200.432C243.852 200.432 243.852 202.4 245.126 202.4Z" fill="#00B1E9"/>
<path d="M243.273 192.442C243.505 192.442 243.737 192.442 243.852 192.442C243.968 192.442 244.084 192.442 244.2 192.326C244.316 192.326 244.431 192.211 244.547 192.095C244.663 191.979 244.663 191.863 244.779 191.747C244.895 191.632 244.895 191.516 244.895 191.4C244.895 191.284 244.895 191.168 244.895 191.168C244.895 191.053 244.779 190.821 244.663 190.705C244.547 190.705 244.547 190.589 244.431 190.589C244.316 190.474 244.084 190.474 243.968 190.474C243.737 190.474 243.505 190.474 243.389 190.474C243.273 190.474 243.158 190.474 243.042 190.589C242.926 190.589 242.81 190.705 242.695 190.821C242.579 190.937 242.579 191.053 242.463 191.168C242.347 191.284 242.347 191.4 242.347 191.516C242.347 191.632 242.347 191.747 242.347 191.747C242.347 191.863 242.463 192.095 242.579 192.211C242.695 192.211 242.695 192.326 242.81 192.326C242.926 192.326 243.158 192.442 243.273 192.442Z" fill="#00B1E9"/>
<path d="M340.19 234.358C341.463 234.358 341.463 232.389 340.19 232.389C338.916 232.389 338.916 234.358 340.19 234.358Z" fill="#00B1E9"/>
<path d="M329.653 295.611C330.926 295.611 330.926 293.642 329.653 293.642C328.379 293.642 328.379 295.611 329.653 295.611Z" fill="#00B1E9"/>
<path d="M322.705 289.358C323.979 289.358 323.979 287.389 322.705 287.389C321.432 287.389 321.432 289.358 322.705 289.358Z" fill="#00B1E9"/>
<path d="M153.884 409.547C156.895 409.547 156.895 404.916 153.884 404.916C150.874 404.916 150.874 409.547 153.884 409.547Z" fill="#00B1E9"/>
<path d="M121.926 379.442C124.937 379.442 124.937 374.811 121.926 374.811C119.032 374.811 119.032 379.442 121.926 379.442Z" fill="#00B1E9"/>
<path d="M179.474 51.1789C182.484 51.1789 182.484 46.5474 179.474 46.5474C176.463 46.5474 176.463 51.1789 179.474 51.1789Z" fill="#00B1E9"/>
<path d="M273.958 260.642C276.969 260.642 276.969 256.011 273.958 256.011C270.948 256.011 270.948 260.642 273.958 260.642Z" fill="#00B1E9"/>
</svg>
